<svg width="75" height="75" fill="none" xmlns="http://www.w3.org/2000/svg"><path d="M37.5 4.688C19.38 4.688 4.687 19.38 4.687 37.5c0 18.12 14.693 32.813 32.813 32.813 18.12 0 32.813-14.693 32.813-32.813 0-18.12-14.693-32.813-32.813-32.813zm0 60.058c-15.044 0-27.246-12.202-27.246-27.246 0-15.044 12.202-27.246 27.246-27.246 15.044 0 27.246 12.202 27.246 27.246 0 15.044-12.202 27.246-27.246 27.246z" fill="#E8BF5F"/><path d="M50.295 46.773L39.851 39.22V21.094a.588.588 0 00-.586-.586h-3.523a.588.588 0 00-.586.586v20.17a.58.58 0 00.242.477l12.114 8.833c.264.19.63.132.82-.125l2.095-2.856a.584.584 0 00-.132-.82z" fill="#E8BF5F"/></svg>