<svg width="76" height="76" fill="none" xmlns="http://www.w3.org/2000/svg"><path d="M37.75.813l37.5 17.307v7.692h-75V18.12L37.75.812zm16.667 28.846h16.666v30.769H54.417v-30.77zM.25 75.813v-11.54h75v11.538h-75zm29.167-46.154h16.666v30.769H29.417v-30.77zm-25 0h16.666v30.769H4.417v-30.77zm0 38.461v3.846h66.666V68.12H4.417zm4.166-34.615v23.077h8.334V33.505H8.583zm25 0v23.077h8.334V33.505h-8.334zm25 0v23.077h8.334V33.505h-8.334zM4.417 21.966h66.666v-1.538L37.75 4.97 4.417 20.432v1.534z" fill="#E8BF5F"/></svg>