<svg width="75" height="75" fill="none" xmlns="http://www.w3.org/2000/svg"><path d="M51.923.542c-12.447 0-22.537 5.565-22.537 12.439s10.093 12.441 22.537 12.441c12.447 0 22.538-5.567 22.538-12.441C74.46 6.107 64.367.539 51.923.539v.003zm22.538 16.134c-.006 6.874-10.09 12.441-22.538 12.441-12.412 0-22.48-5.507-22.537-12.349v4.866c0 2.937 1.88 5.625 4.961 7.754 3.116.848 5.89 2.025 8.201 3.514a38.118 38.118 0 009.375 1.171c12.447 0 22.538-5.564 22.538-12.439v-4.958zm0 8.654c0 6.874-10.09 12.441-22.538 12.441-1.514 0-2.985-.113-4.416-.271a12.548 12.548 0 012.253 5.137c.718.04 1.428.09 2.163.09 12.447 0 22.538-5.565 22.538-12.439V25.33zm-51.384 6.94C10.63 32.27.54 37.837.54 44.711c0 6.875 10.093 12.442 22.537 12.442 12.447 0 22.537-5.567 22.537-12.442 0-6.874-10.093-12.44-22.537-12.44zm51.384 1.713c-.006 6.875-10.09 12.442-22.538 12.442-.724 0-1.456-.052-2.163-.092-.032.216-.05.504-.09.72.145.436.269.866.269 1.357v2.884c.654.032 1.312.087 1.984.087 12.447 0 22.538-5.565 22.538-12.439v-4.959zm0 8.654c-.006 6.874-10.09 12.442-22.538 12.442-.724 0-1.456-.052-2.163-.093-.032.217-.05.505-.09.722.145.432.269.865.269 1.355v2.885c.654.032 1.312.087 1.984.087 12.447 0 22.538-5.565 22.538-12.439v-4.959zm-28.846 5.77c-.006 6.874-10.09 12.441-22.538 12.441-12.412 0-22.48-5.507-22.537-12.352v4.87c0 6.873 10.087 12.44 22.537 12.44s22.537-5.567 22.537-12.44v-4.96zm0 8.654c-.006 6.873-10.09 12.44-22.538 12.44C10.665 69.502.597 63.996.54 57.15v4.87c0 6.873 10.087 12.44 22.537 12.44s22.537-5.567 22.537-12.44v-4.96z" fill="#E8BF5F"/></svg>