<svg xmlns="http://www.w3.org/2000/svg" width="17" height="14" fill="none"><path fill="#E8BF5F" d="M17 12.194V1.742C17 .778 16.33 0 15.5 0h-14C.67 0 0 .778 0 1.742v10.453c0 .963.67 1.742 1.5 1.742h14c.83 0 1.5-.778 1.5-1.742zm-1.31-10.58c.33.384.15.778-.03.976l-4.057 4.32 3.898 4.715c.12.163.2.418.06.593-.13.186-.43.174-.56.058l-4.367-4.332-2.139 2.265-2.129-2.265L2 12.276c-.13.116-.43.128-.56-.058-.14-.175-.06-.43.06-.593L5.397 6.91 1.339 2.59c-.18-.198-.36-.592-.03-.976.33-.383.67-.197.95.082l6.236 5.853 6.246-5.853c.28-.28.62-.465.95-.082z"/></svg>