<svg width="76" height="76" viewBox="0 0 76 76" fill="none" xmlns="http://www.w3.org/2000/svg">
<path d="M37.75 0.8125L75.25 18.1202V25.8125H0.25V18.1202L37.75 0.8125ZM54.4167 29.6587H71.0833V60.4279H54.4167V29.6587ZM0.25 75.8125V64.274H75.25V75.8125H0.25ZM29.4167 29.6587H46.0833V60.4279H29.4167V29.6587ZM4.41667 29.6587H21.0833V60.4279H4.41667V29.6587ZM4.41667 68.1202V71.9663H71.0833V68.1202H4.41667ZM8.58333 33.5048V56.5817H16.9167V33.5048H8.58333ZM33.5833 33.5048V56.5817H41.9167V33.5048H33.5833ZM58.5833 33.5048V56.5817H66.9167V33.5048H58.5833ZM4.41667 21.9663H71.0833V20.4279L37.75 4.97019L4.41667 20.4317V21.9663Z" fill="#E8BF5F"/>
</svg>
