<svg xmlns="http://www.w3.org/2000/svg" width="14" height="15" fill="none"><path fill="#E8BF5F" d="M13.992 11.838a.725.725 0 00-.357-.523l-2.867-1.81-.023-.014a.86.86 0 00-1.016.172l-.847.907a.48.48 0 01-.19.092c-.01 0-.984-.076-2.779-2-1.791-1.919-1.867-2.967-1.868-2.967a.503.503 0 01.085-.218l.722-.774a1.04 1.04 0 00.18-1.076L3.438.413C3.322.158 3.098 0 2.848 0a.658.658 0 00-.48.221L.4 2.324a1.661 1.661 0 00-.386.836c-.017.135-.366 3.364 3.764 7.79 3.506 3.758 6.24 4.05 6.995 4.05.092.001.184-.004.275-.015a1.47 1.47 0 00.778-.413l1.966-2.106a.758.758 0 00.2-.628z"/></svg>