<svg width="80" height="80" viewBox="0 0 80 80" fill="none" xmlns="http://www.w3.org/2000/svg">
<path fill-rule="evenodd" clip-rule="evenodd" d="M10 67.5V35H15V67.5C15 68.163 15.2634 68.7989 15.7322 69.2678C16.2011 69.7366 16.837 70 17.5 70H62.5C63.163 70 63.7989 69.7366 64.2678 69.2678C64.7366 68.7989 65 68.163 65 67.5V35H70V67.5C70 69.4891 69.2098 71.3968 67.8033 72.8033C66.3968 74.2098 64.4891 75 62.5 75H17.5C15.5109 75 13.6032 74.2098 12.1967 72.8033C10.7902 71.3968 10 69.4891 10 67.5V67.5ZM65 12.5V30L55 20V12.5C55 11.837 55.2634 11.2011 55.7322 10.7322C56.2011 10.2634 56.837 10 57.5 10H62.5C63.163 10 63.7989 10.2634 64.2678 10.7322C64.7366 11.2011 65 11.837 65 12.5Z" fill="#FAF8F0"/>
<path fill-rule="evenodd" clip-rule="evenodd" d="M36.4645 7.50031C37.4021 6.56295 38.6737 6.03638 39.9995 6.03638C41.3253 6.03638 42.5969 6.56295 43.5345 7.50031L76.7695 40.7303C77.2389 41.1997 77.5027 41.8364 77.5027 42.5003C77.5027 43.1642 77.2389 43.8009 76.7695 44.2703C76.3001 44.7397 75.6634 45.0035 74.9995 45.0035C74.3356 45.0035 73.6989 44.7397 73.2295 44.2703L39.9995 11.0353L6.7695 44.2703C6.30006 44.7397 5.66337 45.0035 4.9995 45.0035C4.33562 45.0035 3.69893 44.7397 3.2295 44.2703C2.76006 43.8009 2.49634 43.1642 2.49634 42.5003C2.49634 41.8364 2.76006 41.1997 3.2295 40.7303L36.4645 7.50031Z" fill="#FAF8F0"/>
</svg>
