<svg width="80" height="80" viewBox="0 0 80 80" fill="none" xmlns="http://www.w3.org/2000/svg">
<g clip-path="url(#clip0)">
<path d="M70.8847 3.38529C71.026 3.24339 71.1312 3.06961 71.1913 2.87859C71.2514 2.68758 71.2648 2.48491 71.2302 2.28766C71.1957 2.09041 71.1142 1.90435 70.9928 1.74514C70.8713 1.58593 70.7134 1.45823 70.5322 1.37279C67.7387 0.0535457 64.6053 -0.368494 61.5623 0.164639C58.5192 0.697772 55.7159 2.15993 53.5372 4.35029C49.2922 8.62279 47.8097 15.3328 49.7897 20.9428L20.9422 49.7903C19.3396 49.2253 17.6515 48.9412 15.9522 48.9503C11.6672 48.9503 7.51225 50.6553 4.55475 53.6303C2.38379 55.7919 0.916448 58.5589 0.344993 61.5688C-0.226462 64.5786 0.124624 67.6909 1.35225 70.4978C1.43272 70.6857 1.55821 70.8509 1.71765 70.9788C1.8771 71.1067 2.06558 71.1934 2.26647 71.2312C2.46735 71.269 2.67445 71.2568 2.86948 71.1956C3.06452 71.1344 3.24148 71.0261 3.38475 70.8803L12.1122 62.1078C12.6872 61.5278 13.6147 61.4503 14.0947 61.9378L17.8622 65.8803C18.4097 66.4328 18.3847 67.2853 17.8072 67.8678L9.11225 76.6178C8.97094 76.7595 8.86578 76.933 8.80564 77.1239C8.7455 77.3147 8.73215 77.5172 8.76671 77.7143C8.80128 77.9114 8.88274 78.0973 9.00423 78.2563C9.12572 78.4152 9.28367 78.5427 9.46475 78.6278C11.4879 79.593 13.7007 80.0952 15.9422 80.0978C19.8722 80.0978 23.6047 78.5178 26.4597 75.6478C30.7047 71.3778 32.1872 64.6678 30.2047 59.0578L59.0522 30.2078C60.6558 30.7726 62.3447 31.0567 64.0447 31.0478C68.3297 31.0478 72.4847 29.3428 75.4422 26.3678C77.6132 24.2062 79.0805 21.4391 79.652 18.4293C80.2235 15.4195 79.8724 12.3072 78.6447 9.50029C78.5643 9.31239 78.4388 9.14719 78.2793 9.01928C78.1199 8.89137 77.9314 8.80468 77.7305 8.76688C77.5296 8.72907 77.3225 8.74131 77.1275 8.80251C76.9325 8.86371 76.7555 8.97199 76.6122 9.11779L67.8847 17.8903C67.6151 18.151 67.2534 18.2946 66.8784 18.2899C66.5033 18.2852 66.1453 18.1326 65.8822 17.8653L62.1347 14.1178C62.0011 13.9894 61.8946 13.8354 61.8219 13.665C61.7491 13.4945 61.7115 13.3112 61.7112 13.1258C61.711 12.9405 61.7482 12.757 61.8205 12.5864C61.8928 12.4158 61.9989 12.2615 62.1322 12.1328L70.8847 3.38529ZM60.3647 15.8853L64.1122 19.6328C65.6097 21.1378 68.1747 21.1453 69.6572 19.6553L76.9822 12.2953C77.5625 14.4578 77.562 16.735 76.9808 18.8972C76.3997 21.0595 75.2584 23.0301 73.6722 24.6103C71.1797 27.1178 67.6747 28.5528 64.0472 28.5528C62.3397 28.5528 60.7222 28.2328 59.2397 27.6028C59.0106 27.5052 58.7575 27.4783 58.513 27.5255C58.2685 27.5727 58.0436 27.6919 57.8672 27.8678L27.8672 57.8678C27.6917 58.0433 27.5724 58.2671 27.5248 58.5107C27.4771 58.7543 27.5032 59.0066 27.5997 59.2353C29.6072 64.0103 28.3847 70.1728 24.6922 73.8878C23.1012 75.5016 21.0981 76.6482 18.9007 77.2027C16.7034 77.7572 14.396 77.6985 12.2297 77.0328L19.5822 69.6328C21.1347 68.0703 21.1597 65.6478 19.6547 64.1378L15.8897 60.1953C14.4372 58.7328 11.8547 58.8228 10.3447 60.3503L3.01975 67.7103C2.43952 65.5478 2.44002 63.2706 3.02117 61.1084C3.60233 58.9461 4.74358 56.9755 6.32975 55.3953C8.82225 52.8878 12.3272 51.4528 15.9547 51.4528C17.6622 51.4528 19.2797 51.7728 20.7622 52.4028C20.9913 52.5011 21.2445 52.5283 21.4892 52.4811C21.7339 52.4339 21.9588 52.3143 22.1347 52.1378L52.1347 22.1378C52.3103 21.9623 52.4296 21.7385 52.4772 21.4949C52.5249 21.2513 52.4988 20.999 52.4022 20.7703C50.3947 15.9953 51.6172 9.83029 55.3097 6.11529C56.9002 4.50304 58.9021 3.35746 61.0979 2.80299C63.2937 2.24853 65.5995 2.30639 67.7647 2.97029L60.3647 10.3728C59.9988 10.7325 59.7082 11.1615 59.5098 11.6347C59.3114 12.1079 59.2092 12.6159 59.2092 13.129C59.2092 13.6422 59.3114 14.1502 59.5098 14.6234C59.7082 15.0966 59.9988 15.5256 60.3647 15.8853Z" fill="#FAF8F0"/>
<path d="M73.0246 76.618C72.7466 76.8854 72.3756 77.0344 71.9898 77.0335C71.6041 77.0325 71.2338 76.8818 70.9571 76.613L45.8821 51.613C45.6431 51.3994 45.3314 51.2854 45.0109 51.2947C44.6905 51.304 44.3858 51.4358 44.1596 51.6629C43.9335 51.8901 43.803 52.1953 43.7951 52.5157C43.7871 52.8362 43.9024 53.1475 44.1171 53.3855L69.1896 78.3805C69.9396 79.133 70.9346 79.548 71.9946 79.548C73.0546 79.548 74.0496 79.133 74.8146 78.363L78.3871 74.6305C78.7523 74.2701 79.0423 73.8407 79.2401 73.3672C79.4379 72.8937 79.5397 72.3857 79.5394 71.8725C79.5392 71.3594 79.437 70.8514 79.2387 70.3781C79.0405 69.9048 78.7501 69.4757 78.3846 69.1155L53.3846 44.1155C53.1488 43.8878 52.8331 43.7618 52.5053 43.7647C52.1776 43.7675 51.8641 43.899 51.6323 44.1308C51.4006 44.3625 51.2691 44.676 51.2662 45.0038C51.2634 45.3315 51.3894 45.6473 51.6171 45.883L76.6146 70.8805C77.1871 71.4555 77.1871 72.2905 76.5971 72.8855L73.0246 76.618V76.618Z" fill="#FAF8F0"/>
<path d="M14.6347 7.86525L7.1347 0.365251C6.90029 0.130912 6.58241 -0.000732422 6.25095 -0.000732422C5.9195 -0.000732422 5.60161 0.130912 5.3672 0.365251L0.367204 5.36525C0.132865 5.59966 0.0012207 5.91755 0.0012207 6.249C0.0012207 6.58046 0.132865 6.89834 0.367204 7.13275L7.8672 14.6328C8.10193 14.8662 8.41939 14.9975 8.75044 14.9979C9.08149 14.9984 9.39932 14.868 9.6347 14.6353L11.2497 13.0178L30.3647 32.1327C30.4798 32.2523 30.6176 32.3477 30.7701 32.4134C30.9225 32.4791 31.0864 32.5138 31.2524 32.5155C31.4184 32.5172 31.583 32.4858 31.7367 32.4232C31.8904 32.3605 32.0301 32.2679 32.1476 32.1507C32.2652 32.0335 32.3582 31.8941 32.4212 31.7406C32.4843 31.587 32.5162 31.4225 32.515 31.2565C32.5138 31.0906 32.4795 30.9265 32.4142 30.7739C32.3489 30.6213 32.2539 30.4832 32.1347 30.3678L13.0172 11.2503L14.6322 9.63525C14.7488 9.5193 14.8413 9.38149 14.9046 9.22972C14.9678 9.07794 15.0005 8.91519 15.0007 8.75077C15.0009 8.58635 14.9687 8.4235 14.9059 8.27155C14.8431 8.1196 14.7509 7.98153 14.6347 7.86525V7.86525ZM8.7497 11.9828L3.0172 6.25025L6.2497 3.01775L11.9822 8.75025L8.7497 11.9828Z" fill="#FAF8F0"/>
</g>
<defs>
<clipPath id="clip0">
<rect width="80" height="80" fill="white"/>
</clipPath>
</defs>
</svg>
