<svg width="80" height="80" viewBox="0 0 80 80" fill="none" xmlns="http://www.w3.org/2000/svg">
<path d="M0 0H5V80H0V0ZM5 75H80V80H5V75Z" fill="#FAF8F0"/>
<path fill-rule="evenodd" clip-rule="evenodd" d="M71.95 21.5601L50.205 48.7501L35 33.5351L16.77 51.7701L13.23 48.2301L35 26.4651L49.795 41.2501L68.045 18.4351L71.95 21.5551V21.5601Z" fill="#FAF8F0"/>
<path fill-rule="evenodd" clip-rule="evenodd" d="M50 17.5C50 16.837 50.2634 16.2011 50.7322 15.7322C51.2011 15.2634 51.837 15 52.5 15H72.5C73.163 15 73.7989 15.2634 74.2678 15.7322C74.7366 16.2011 75 16.837 75 17.5V37.5C75 38.163 74.7366 38.7989 74.2678 39.2678C73.7989 39.7366 73.163 40 72.5 40C71.837 40 71.2011 39.7366 70.7322 39.2678C70.2634 38.7989 70 38.163 70 37.5V20H52.5C51.837 20 51.2011 19.7366 50.7322 19.2678C50.2634 18.7989 50 18.163 50 17.5Z" fill="#FAF8F0"/>
</svg>
