<svg width="80" height="80" viewBox="0 0 80 80" fill="none" xmlns="http://www.w3.org/2000/svg">
<path d="M5 55H75V60H5V55Z" fill="#FAF8F0"/>
<path d="M5 65H75V70H5V65Z" fill="#FAF8F0"/>
<path d="M60 25C59.0111 25 58.0444 25.2932 57.2221 25.8427C56.3999 26.3921 55.759 27.173 55.3806 28.0866C55.0022 29.0002 54.9031 30.0055 55.0961 30.9755C55.289 31.9454 55.7652 32.8363 56.4645 33.5355C57.1637 34.2348 58.0546 34.711 59.0246 34.9039C59.9945 35.0969 60.9998 34.9978 61.9134 34.6194C62.8271 34.241 63.6079 33.6001 64.1573 32.7779C64.7068 31.9556 65 30.9889 65 30C65 28.6739 64.4732 27.4021 63.5355 26.4645C62.5979 25.5268 61.3261 25 60 25Z" fill="#FAF8F0"/>
<path d="M40 40C38.0222 40 36.0888 39.4135 34.4443 38.3147C32.7998 37.2159 31.5181 35.6541 30.7612 33.8268C30.0043 31.9996 29.8063 29.9889 30.1922 28.0491C30.578 26.1093 31.5304 24.3275 32.9289 22.9289C34.3275 21.5304 36.1093 20.578 38.0491 20.1922C39.9889 19.8063 41.9996 20.0043 43.8268 20.7612C45.6541 21.5181 47.2159 22.7998 48.3147 24.4443C49.4135 26.0888 50 28.0222 50 30C49.9967 32.6512 48.9421 35.1928 47.0674 37.0674C45.1928 38.9421 42.6512 39.9967 40 40V40ZM40 25C39.0111 25 38.0444 25.2933 37.2222 25.8427C36.3999 26.3921 35.759 27.173 35.3806 28.0866C35.0022 29.0002 34.9032 30.0056 35.0961 30.9755C35.289 31.9454 35.7652 32.8363 36.4645 33.5355C37.1637 34.2348 38.0546 34.711 39.0246 34.9039C39.9945 35.0969 40.9998 34.9978 41.9134 34.6194C42.8271 34.241 43.6079 33.6001 44.1574 32.7779C44.7068 31.9556 45 30.9889 45 30C44.9987 28.6743 44.4715 27.4033 43.5341 26.4659C42.5967 25.5285 41.3257 25.0013 40 25Z" fill="#FAF8F0"/>
<path d="M20 25C19.0111 25 18.0444 25.2932 17.2222 25.8427C16.3999 26.3921 15.759 27.173 15.3806 28.0866C15.0022 29.0002 14.9031 30.0055 15.0961 30.9755C15.289 31.9454 15.7652 32.8363 16.4645 33.5355C17.1637 34.2348 18.0546 34.711 19.0246 34.9039C19.9945 35.0969 20.9998 34.9978 21.9134 34.6194C22.827 34.241 23.6079 33.6001 24.1573 32.7779C24.7068 31.9556 25 30.9889 25 30C25 28.6739 24.4732 27.4021 23.5355 26.4645C22.5979 25.5268 21.3261 25 20 25Z" fill="#FAF8F0"/>
<path d="M70 50H10C8.67493 49.9967 7.40508 49.4689 6.46811 48.5319C5.53114 47.5949 5.0033 46.3251 5 45V15C5.0033 13.6749 5.53114 12.4051 6.46811 11.4681C7.40508 10.5311 8.67493 10.0033 10 10H70C71.3251 10.0033 72.5949 10.5311 73.5319 11.4681C74.4689 12.4051 74.9967 13.6749 75 15V45C74.998 46.3255 74.4706 47.5961 73.5333 48.5333C72.5961 49.4706 71.3255 49.998 70 50V50ZM70 15H10V45H70V15Z" fill="#FAF8F0"/>
</svg>
