<svg width="80" height="80" viewBox="0 0 80 80" fill="none" xmlns="http://www.w3.org/2000/svg">
<g clip-path="url(#clip0)">
<path d="M77.4913 19.9805H65.0035V32.4683C65.0035 32.6764 64.9775 32.8325 64.9254 32.9366C64.8214 33.5089 64.5482 33.9902 64.1059 34.3805C63.6636 34.7707 63.1303 34.9659 62.5059 34.9659H50.0181V47.4537C50.0181 47.6618 49.9921 47.8179 49.9401 47.922C49.836 48.4943 49.5628 48.9756 49.1206 49.3659C48.6783 49.7561 48.1449 49.9512 47.5206 49.9512H35.0327V62.439C35.0327 62.6472 35.0067 62.8033 34.9547 62.9073C34.8506 63.4797 34.5775 63.961 34.1352 64.3512C33.6929 64.7415 33.1596 64.9366 32.5352 64.9366H20.0474V77.4244C20.0474 77.6325 20.0214 77.7886 19.9693 77.8927C19.8653 78.465 19.5921 78.9463 19.1498 79.3366C18.7075 79.7268 18.1742 79.922 17.5498 79.922H2.56446C1.88803 79.922 1.30267 79.6748 0.808358 79.1805C0.314049 78.6862 0.0668945 78.1008 0.0668945 77.4244C0.0668945 76.748 0.314049 76.1626 0.808358 75.6683C1.30267 75.174 1.88803 74.9268 2.56446 74.9268H15.0523V62.439C15.0523 62.2309 15.0783 62.0748 15.1303 61.9707C15.2344 61.3984 15.5206 60.9171 15.9888 60.5268C16.4571 60.1366 16.9775 59.9415 17.5498 59.9415H30.0376V47.4537C30.0376 47.2455 30.0636 47.0894 30.1157 46.9854C30.2197 46.413 30.5059 45.9317 30.9742 45.5415C31.4425 45.1512 31.9628 44.9561 32.5352 44.9561H45.023V32.4683C45.023 32.3122 45.049 32.1561 45.101 32C45.2051 31.4276 45.4913 30.9463 45.9596 30.5561C46.4279 30.1659 46.9482 29.9707 47.5206 29.9707H60.0084V17.4829C60.0084 17.2748 60.0344 17.1187 60.0864 17.0146C60.1905 16.4423 60.4636 15.961 60.9059 15.5707C61.3482 15.1805 61.8815 14.9854 62.5059 14.9854H77.4913C78.1677 14.9854 78.7531 15.2325 79.2474 15.7268C79.7417 16.2211 79.9888 16.8065 79.9888 17.4829C79.9888 18.1593 79.7417 18.7447 79.2474 19.239C78.7531 19.7333 78.1677 19.9805 77.4913 19.9805ZM37.5303 29.9707H32.5352C31.8588 29.9707 31.2734 29.7236 30.7791 29.2293C30.2848 28.735 30.0376 28.1496 30.0376 27.4732V17.2488L7.94982 39.2585C7.4295 39.7268 6.81811 39.961 6.11568 39.961C5.41324 39.961 4.82787 39.7268 4.35958 39.2585L0.769334 35.6683C0.301041 35.2 0.0668945 34.6146 0.0668945 33.9122C0.0668945 33.2098 0.301041 32.6244 0.769334 32.1561L23.0913 9.99024H12.5547C11.8783 9.99024 11.2929 9.74309 10.7986 9.24878C10.3043 8.75447 10.0571 8.16911 10.0571 7.49268V2.49756C10.0571 1.82114 10.3043 1.23577 10.7986 0.741463C11.2929 0.247154 11.8783 0 12.5547 0H37.5303C38.2067 0 38.7921 0.247154 39.2864 0.741463C39.7807 1.23577 40.0279 1.82114 40.0279 2.49756V27.4732C40.0279 28.1496 39.7807 28.735 39.2864 29.2293C38.7921 29.7236 38.2067 29.9707 37.5303 29.9707Z" fill="#FAF8F0"/>
</g>
<defs>
<clipPath id="clip0">
<rect width="80" height="79.922" fill="white"/>
</clipPath>
</defs>
</svg>
